<svg width="569" height="322" viewBox="0 0 569 322" fill="none" xmlns="http://www.w3.org/2000/svg">
<path d="M558.944 256.961C534.909 293.42 493.7 314.85 450.032 314.85H87.591C14.741 314.85 -26.11 229.674 21.136 181.712C68.381 133.749 26.6504 92.7851 99.5235 54.3245C170.124 17.0633 194.228 96.4885 259.266 44.5181C324.306 -7.45041 418.995 -2.54767 439.799 50.4022C460.602 103.352 455.701 121.986 499.825 133.752C543.95 145.516 587.094 212.194 560.619 254.358C560.068 255.236 559.509 256.104 558.944 256.961Z" fill="#CBD5FC"/>
<path d="M542.831 271.742C504.649 274.98 478.91 346.55 383.461 303.532C383.461 303.532 393.942 272.289 440.893 252.813C487.842 233.338 542.831 271.742 542.831 271.742Z" fill="#C8DDF5"/>
<path d="M396.496 298.173C406.461 292.992 416.797 288.525 427.353 284.64C429.979 283.631 432.642 282.723 435.314 281.838C437.974 280.917 440.668 280.101 443.358 279.269C446.038 278.405 448.767 277.704 451.486 276.966C452.846 276.604 454.202 276.22 455.569 275.877L459.679 274.891L463.8 273.946L467.95 273.129L472.101 272.314C473.485 272.049 474.882 271.843 476.276 271.63C479.068 271.219 481.848 270.75 484.66 270.482C487.468 270.191 490.26 269.785 493.085 269.68C504.329 268.864 515.699 269.048 526.786 270.925C515.555 270.653 504.42 271.318 493.377 272.679L491.304 272.914L489.242 273.231L485.113 273.834C482.357 274.187 479.627 274.74 476.891 275.235C475.526 275.502 474.149 275.694 472.786 275.978L468.701 276.825L464.617 277.675L460.557 278.648L456.488 279.578C455.134 279.902 453.791 280.269 452.442 280.611L448.397 281.657C447.047 281.999 445.718 282.417 444.37 282.771C441.682 283.508 438.99 284.229 436.327 285.058C433.66 285.869 430.975 286.629 428.318 287.482C417.659 290.802 407.095 294.458 396.496 298.173Z" fill="#ACBED3"/>
<path d="M547.504 149.944C500.916 183.246 522.467 294.848 366.996 312.421C366.996 312.421 356.617 264.276 402.08 203.423C447.543 142.569 547.504 149.944 547.504 149.944Z" fill="#6C83DC"/>
<path d="M377.34 298.974C384.121 284.284 392.49 270.312 401.906 257.087C411.294 243.834 421.821 231.363 433.286 219.813C444.766 208.286 457.204 197.654 470.664 188.477C484.082 179.303 498.558 171.409 513.999 166.49C499.668 174.005 486.389 182.937 473.776 192.733C461.211 202.583 449.329 213.266 438.073 224.58C426.807 235.892 416.192 247.848 406.088 260.263C396.017 272.712 386.55 285.671 377.34 298.974Z" fill="#C8DDF5"/>
<path d="M44.9414 261.794C82.8014 267.714 103.435 340.919 201.677 304.728C201.677 304.728 193.422 272.824 147.96 250.092C102.497 227.359 44.9414 261.794 44.9414 261.794Z" fill="#C8DDF5"/>
<path d="M189.053 298.465C178.742 294.014 168.461 289.623 158.063 285.559C155.472 284.522 152.848 283.575 150.245 282.578C147.647 281.563 145.01 280.655 142.383 279.731C141.063 279.283 139.767 278.772 138.444 278.336L134.483 277.008C133.162 276.571 131.847 276.111 130.52 275.692L126.527 274.477L122.545 273.221L118.53 272.086L114.515 270.952C113.176 270.573 111.816 270.285 110.474 269.922C107.779 269.236 105.095 268.492 102.37 267.946L98.2939 267.054L96.2583 266.592L94.2089 266.213C83.2881 264.076 72.2269 262.629 61.0059 262.109C72.1973 261.02 83.5524 261.635 94.7106 263.241C97.5214 263.545 100.278 264.145 103.058 264.635C105.844 265.101 108.584 265.764 111.34 266.371C112.716 266.68 114.094 266.984 115.457 267.346L119.539 268.452L123.622 269.559L127.666 270.791L131.697 272.065C133.036 272.502 134.361 272.982 135.693 273.438C138.354 274.365 141.025 275.259 143.639 276.308C146.264 277.328 148.894 278.331 151.482 279.438C154.084 280.508 156.677 281.601 159.226 282.793C169.482 287.412 179.478 292.595 189.053 298.465Z" fill="#ACBED3"/>
<path d="M70.1074 144.819C112.059 179.519 84.1495 283.912 230.412 310.985C230.412 310.985 243.478 266.024 204.438 205.27C165.398 144.516 70.1074 144.819 70.1074 144.819Z" fill="#6C83DC"/>
<path d="M221.504 297.542C213.599 284.338 205.46 271.439 196.724 258.977C187.954 246.545 178.685 234.508 168.764 223.033C158.852 211.555 148.312 200.629 137.078 190.431C125.795 180.284 113.831 170.9 100.775 162.753C115.12 168.39 128.351 176.821 140.482 186.406C152.657 195.995 163.754 206.909 173.874 218.617C183.978 230.342 193.123 242.887 201.12 256.102C209.147 269.292 216.119 283.125 221.504 297.542Z" fill="#C8DDF5"/>
<path d="M316.819 242.003C311.567 248.24 306.808 258.579 303.854 260.221C300.9 261.862 295.919 262.432 291.211 277.584C286.504 292.734 310.268 290.66 310.268 290.66C310.268 290.66 320.43 284.824 324.533 270.725L334.708 261.698L316.819 242.003Z" fill="#FFA498"/>
<path d="M298.437 288.999C298.437 288.999 306.129 286.494 312.653 279.604C319.202 272.687 320.046 260.38 320.046 260.38L323.182 266.241L329.456 259.536L332.48 259.244L334.71 261.698L324.534 270.725C320.431 284.824 310.27 290.661 310.27 290.661C310.27 290.661 303.719 291.228 298.178 289.578C298.32 289.22 298.437 288.999 298.437 288.999Z" fill="#C57E75"/>
<path d="M352.448 187.738C345.169 193.06 340.826 196.921 337.207 204.159C333.587 211.398 310.905 237.404 309.458 239.724C308.009 242.043 322.205 266.655 333.566 272.687C333.566 272.687 350.719 252.9 360.612 245.421C370.505 237.94 367.128 211.398 362.543 202.47C357.958 193.542 352.448 187.738 352.448 187.738Z" fill="#DC466F"/>
<path d="M352.183 235.63V220.856C352.183 220.856 354.108 220.085 355.611 225.071C356.21 227.066 356.165 229.164 355.897 230.969L366.941 222.664C367.397 231.961 365.905 241.419 360.612 245.421C350.719 252.9 333.567 272.687 333.567 272.687C330.635 271.131 327.516 268.334 324.525 265.006C331.51 258.052 344.761 244.628 352.183 235.63Z" fill="#D12050"/>
<path d="M281.618 284.824C279.729 285.414 278.334 286.317 278.334 288.696C278.334 291.076 278.744 294.851 279.647 296.327C280.55 297.805 285.21 298.69 285.21 298.69C285.21 298.69 284.899 288.86 283.914 287.055C282.929 285.249 281.618 284.824 281.618 284.824Z" fill="#FFA498"/>
<path d="M279.646 296.328C279.393 295.913 279.181 295.306 279.004 294.609C280.015 295.603 280.355 295.611 281.593 295.741L285.132 296.845C285.186 297.951 285.21 298.691 285.21 298.691C285.21 298.691 280.549 297.805 279.646 296.328Z" fill="#C57E75"/>
<path d="M286.13 281.229C283.832 281.475 281.534 283.199 281.534 285.578C281.534 287.957 280.715 294.605 281.534 295.672C282.356 296.738 286.377 299.774 287.771 300.021C289.166 300.267 291.536 299.856 291.212 299.117C290.89 298.38 286.13 281.229 286.13 281.229Z" fill="#FFA498"/>
<path d="M281.186 293.885C282.927 295.852 287.382 295.675 287.382 295.675C287.382 295.675 289.34 297.766 289.582 298.438C289.727 298.843 290.529 299.377 290.638 299.791C289.903 300.071 288.645 300.176 287.771 300.022C286.402 299.779 282.519 296.861 281.594 295.742L281.186 293.89V293.885Z" fill="#C57E75"/>
<path d="M294.74 277.303C287.69 277.701 286.377 278.357 286.131 281.229C285.884 284.101 286.049 292.471 286.95 294.606C287.854 296.738 288.346 298.626 289.495 299.774C290.644 300.923 292.363 300.928 292.363 300.928C292.363 300.928 296.224 295.262 296.388 290.502C296.552 285.743 294.74 277.303 294.74 277.303Z" fill="#FFA498"/>
<path d="M290.685 296.212C291.043 294.264 291.836 292.186 291.936 285.663C291.974 283.213 294.246 296.009 293.232 299.521C292.726 300.393 292.363 300.928 292.363 300.928C292.363 300.928 290.645 300.923 289.496 299.774C288.347 298.625 287.855 296.737 286.951 294.605C286.893 294.465 286.838 294.298 286.785 294.11C287.245 295.307 288.706 296.092 290.685 296.212Z" fill="#C57E75"/>
<path d="M310.173 291.733C309.73 295.654 304.593 297.066 304.018 299.035C303.445 301.005 303.854 302.811 302.87 303.302C301.885 303.796 297.782 301.498 297.947 298.873C297.947 298.873 296.879 301.087 294.499 301.498C292.12 301.908 291.545 300.17 291.956 297.551C292.366 294.933 292.285 293.537 292.202 290.42C292.12 287.301 291.381 284.43 292.776 280.982C294.171 277.537 296.059 274.5 299.834 275.075C303.608 275.649 305.906 280.408 307.957 282.05C310.009 283.69 310.665 287.384 310.173 291.733Z" fill="#FFA498"/>
<path d="M297.947 298.872C298.177 293.885 298.437 289.803 298.437 288.999C298.437 288.194 298.177 282.901 300.059 282.58C300.344 282.531 304.482 285.153 304.562 286.922C304.643 288.692 304.562 291.87 303.276 292.774C301.989 293.68 297.947 298.872 297.947 298.872Z" fill="#C57E75"/>
<path d="M468.952 198.368C461.472 188.878 458.898 187.912 451.177 183.409C443.455 178.904 414.178 167.483 408.145 166.035C402.114 164.587 377.784 175.928 369.8 179.547C361.818 183.167 351.659 186.728 349.929 190.256C344.134 202.063 355.61 218.798 355.67 253.867C355.702 272.233 359.887 313.536 359.887 313.536C359.887 313.536 451.82 313.708 453.107 311.776C454.394 309.846 457.612 243.893 459.22 230.38C460.829 216.868 468.952 198.368 468.952 198.368Z" fill="#DC466F"/>
<path d="M350.267 208.744C349.578 206.523 349.169 204.262 348.824 201.993C348.51 199.718 348.262 197.435 348.296 195.11C348.987 197.33 349.397 199.591 349.738 201.861C350.052 204.136 350.299 206.419 350.267 208.744Z" fill="#D12050"/>
<path d="M384.645 194.93C381.093 193.603 372.678 195.911 371.139 196.446C369.601 196.981 372.044 190.406 372.949 189.592C373.853 188.777 375.302 186.881 378.077 187.739C380.852 188.597 383.184 191.773 383.586 192.819C383.988 193.864 384.645 194.93 384.645 194.93Z" fill="#D12050"/>
<path d="M414.24 200.419C412.974 200.359 405.583 196.96 403.815 196.116C402.045 195.271 394.029 194.877 388.646 196.381C388.646 196.381 399.009 189.38 405.041 189.44C411.073 189.501 413.366 191.672 413.848 193.603C414.331 195.533 414.24 200.419 414.24 200.419Z" fill="#D12050"/>
<path d="M374.72 298.747C375.707 297.781 435.747 299.713 436.954 293.439C438.159 287.166 438.99 275.755 438.99 275.755C431.762 279.617 421.269 278.009 421.269 278.009C428.266 275.724 438.401 264.242 438.883 260.864C440.371 250.457 434.81 221.766 434.81 221.766L438.883 213.57L443.65 210.915C443.65 210.915 452.687 215.416 460.414 223.695C459.893 225.987 459.475 228.245 459.221 230.38C457.705 243.12 454.758 302.463 453.348 310.829C434.752 311.515 401.041 312.749 378.485 313.524C367.556 313.55 359.887 313.536 359.887 313.536C359.887 313.536 359.747 308.103 359.418 300.312C365.71 299.945 374.109 299.345 374.72 298.747Z" fill="#D12050"/>
<path d="M386.912 196.678C393.39 195.898 403.802 190.284 407.905 192.215C412.007 194.145 412.971 199.091 413.816 199.936C414.66 200.78 418.28 196.557 418.28 186.183C418.28 175.806 418.598 165.182 410.959 163.739C403.32 162.294 383.534 169.774 379.552 172.79C375.572 175.806 373.882 178.862 372.797 181.798C371.71 184.734 368.815 196.557 370.142 196.678C371.469 196.8 375.209 189.078 377.984 188.836C380.759 188.595 385.158 196.89 386.912 196.678Z" fill="#DC466F"/>
<path d="M383.227 187.39C381.575 183.469 379.766 180.03 379.826 177.316C379.887 174.6 380.489 172.731 383.506 171.887C386.521 171.042 387.789 172.67 387.97 176.773C388.15 180.874 383.227 187.39 383.227 187.39Z" fill="#D12050"/>
<path d="M406.879 180.079C413.185 174.36 413.899 167.965 413.307 166.638C412.714 165.311 410.11 164.345 410.11 164.345C410.11 164.345 409.085 168.508 409.688 169.534C410.29 170.558 406.879 180.079 406.879 180.079Z" fill="#D12050"/>
<path d="M396.84 193.909C398.376 193.218 399.98 192.681 401.615 192.236C403.258 191.837 404.945 191.518 406.699 191.632C407.564 191.696 408.493 191.886 409.267 192.498C409.95 193.142 410.468 193.724 411.048 194.385C412.197 195.69 412.989 197.274 413.717 198.763C413.877 199.106 414.132 199.51 414.243 199.546C414.257 199.551 414.251 199.572 414.381 199.49C414.49 199.414 414.617 199.282 414.732 199.137C415.203 198.536 415.588 197.785 415.964 197.053C416.723 195.61 417.131 194.008 417.454 192.378C417.768 190.747 417.95 189.082 418.067 187.413C418.21 185.743 418.258 184.065 418.28 182.382C418.612 185.732 418.618 189.125 418.153 192.496C417.928 194.176 417.507 195.873 416.748 197.439C416.374 198.207 415.993 198.966 415.439 199.7C415.292 199.882 415.134 200.065 414.901 200.234C414.789 200.318 414.636 200.397 414.453 200.441C414.262 200.487 414.032 200.456 413.861 200.375C413.515 200.202 413.369 199.97 413.229 199.773C413.096 199.571 412.99 199.373 412.892 199.179C412.162 197.651 411.438 196.191 410.376 194.944C409.868 194.326 409.272 193.645 408.749 193.119C408.202 192.664 407.42 192.438 406.629 192.339C405.023 192.148 403.345 192.371 401.713 192.678C400.067 192.967 398.449 193.415 396.84 193.909Z" fill="#D12050"/>
<path d="M381.985 191.744C381.285 191.125 380.59 190.507 379.832 189.993C379.458 189.736 379.074 189.49 378.679 189.321C378.479 189.245 378.287 189.185 378.107 189.162C378.027 189.171 377.942 189.163 377.879 189.184C377.82 189.222 377.785 189.207 377.671 189.292C376.115 190.251 374.905 191.569 373.877 193.077C373.354 193.805 372.896 194.638 372.28 195.393C371.971 195.767 371.644 196.13 371.227 196.453C371.01 196.603 370.79 196.778 370.401 196.824C370.215 196.856 369.954 196.775 369.797 196.635C369.639 196.492 369.56 196.327 369.514 196.188C369.344 195.616 369.399 195.141 369.444 194.656C369.503 194.181 369.587 193.715 369.695 193.257C369.926 192.343 370.182 191.446 370.509 190.569C370.384 191.495 370.218 192.41 370.142 193.331C370.09 193.789 370.055 194.246 370.048 194.696C370.046 195.134 370.055 195.615 370.187 195.928C370.216 196.007 370.261 196.049 370.276 196.06C370.299 196.058 370.276 196.067 370.322 196.054C370.4 196.046 370.582 195.942 370.729 195.814C371.036 195.553 371.326 195.211 371.591 194.853C372.135 194.152 372.571 193.343 373.117 192.551C373.666 191.775 374.267 191.025 374.964 190.356C375.661 189.689 376.468 189.117 377.301 188.676C377.378 188.623 377.572 188.552 377.73 188.508C377.889 188.477 378.045 188.494 378.194 188.503C378.474 188.56 378.717 188.66 378.942 188.779C379.38 189.027 379.754 189.327 380.112 189.642C380.802 190.294 381.438 190.984 381.985 191.744Z" fill="#D12050"/>
<path d="M382.342 163.822C382.356 166.371 382.458 168.913 382.722 171.449C383.373 177.67 382.736 185.875 383.228 187.389C383.777 189.078 387.034 195.11 387.034 195.11C387.034 195.11 392.825 192.456 395.238 189.561C397.65 186.666 400.787 186.518 405.01 182.248C409.234 177.978 412.104 171.196 411.163 165.551C411.043 164.828 410.302 157.602 410.137 150.122C409.974 142.642 402.114 136.958 394.635 136.958C387.155 136.958 382.676 148.057 382.442 155.538C382.346 158.607 382.329 161.491 382.342 163.822Z" fill="#FFA498"/>
<path d="M410.137 150.122C410.302 157.603 411.042 164.829 411.163 165.552C411.454 167.297 411.379 169.152 411.013 171.006C409.358 171.311 388.056 171.825 382.536 169.255C382.41 167.448 382.353 165.637 382.342 163.822C382.329 161.491 382.346 158.608 382.442 155.539C382.542 152.368 383.406 148.549 384.936 145.198L402.46 138.987C406.762 141.282 410.033 145.328 410.137 150.122Z" fill="#C57E75"/>
<path d="M369.218 118.975C357.899 118.975 353.664 127.67 353.664 134.185C353.664 140.034 355.538 149.396 369.218 149.396C376.058 149.396 380.689 142.586 380.689 134.185C380.689 125.785 376.058 118.975 369.218 118.975Z" fill="#524787"/>
<path d="M368.72 122.7C360.173 122.7 356.975 129.265 356.975 134.186C356.975 138.601 358.389 145.672 368.72 145.672C373.886 145.672 377.382 140.53 377.382 134.186C377.382 127.842 373.886 122.7 368.72 122.7Z" fill="#38295C"/>
<path d="M354.939 124.109C355.607 128.074 357.571 129.591 358.448 134.937C359.324 140.283 356.986 148.053 360.473 154.82C363.961 161.587 369.6 170.483 372.858 170.859C376.116 171.235 402.21 166.827 411.015 149.319C413.542 144.293 418.944 124.585 414.322 112.552C409.699 100.519 402.18 89.4919 384.804 89.1574C367.428 88.8229 351.395 103.089 354.939 124.109Z" fill="#FFA498"/>
<path d="M369.472 145.788C370.401 145.809 371.419 145.455 371.878 144.847C372.279 144.314 372.446 143.612 372.327 142.956C370.969 144.075 369.303 144.267 367.632 143.976C367.425 145.223 368.387 145.762 369.472 145.788Z" fill="#C57E75"/>
<path d="M400.21 124.109C399.548 119.984 396.792 117.603 396.792 117.603C396.792 117.603 390.15 114.845 385.013 114.345C379.874 113.844 374.611 112.34 374.611 112.34C374.611 112.34 376.241 116.465 378.998 118.224C378.998 118.224 366.717 117.603 362.832 113.969C362.832 113.969 363.584 116.964 364.336 118.975C364.336 118.975 358.321 118.354 356.442 115.974C356.442 115.974 354.938 121.216 354.938 124.109C354.938 124.109 347.712 114.219 349.55 106.367C351.387 98.5138 353.893 95.5062 353.893 95.5062C353.893 95.5062 348.714 96.007 345.873 95.5062C345.873 95.5062 352.557 89.6582 357.57 85.8162C362.582 81.9723 377.619 81.806 377.619 81.806C377.619 81.806 376.449 77.7959 377.785 71.4471C377.785 71.4471 384.218 80.8866 391.027 83.7686C397.836 86.6505 396.918 86.4066 404.138 88.2278C411.357 90.0499 418.219 94.6709 421.101 98.5554C423.983 102.44 427.117 106.45 428.996 107.076C428.996 107.076 424.484 106.45 422.23 104.57C422.23 104.57 425.99 113.113 421.019 124.109C416.048 135.104 403.593 131.851 401.177 129.423C398.763 126.996 400.21 124.109 400.21 124.109Z" fill="#4375F1"/>
<path d="M401.178 129.424C398.763 126.997 400.21 124.109 400.21 124.109C399.811 121.614 398.645 119.762 397.786 118.683C399.593 107.726 398.856 96.3523 395.646 85.7198C397.522 86.4821 398.636 86.824 401.351 87.5216C404.685 92.5362 407.178 98.1781 408.895 103.893C411.081 111.17 412.139 119.032 410.1 126.353C409.578 128.229 408.815 130.06 407.851 131.774C404.76 131.515 402.152 130.404 401.178 129.424Z" fill="#9A4234"/>
<path d="M404.581 120.025C404.581 120.025 405.44 92.5411 391.029 83.7696C391.029 83.7696 402.181 82.5166 408.572 93.6693C414.963 104.822 414.531 114.387 414.37 119.748C414.209 125.108 404.581 120.025 404.581 120.025Z" fill="#524787"/>
<path d="M408.974 118.975C420.293 118.975 424.529 127.67 424.529 134.185C424.529 140.034 422.654 149.396 408.974 149.396C402.134 149.396 397.504 142.586 397.504 134.185C397.504 125.785 402.134 118.975 408.974 118.975Z" fill="#524787"/>
<path d="M402.871 134.186C402.871 126.729 407.794 120.683 413.867 120.683C419.939 120.683 424.528 126.729 424.528 134.186C424.528 141.644 419.939 147.69 413.867 147.69C407.794 147.69 402.871 141.644 402.871 134.186Z" fill="#C22373"/>
<path d="M407.836 134.185C407.836 129.11 411.185 124.996 415.318 124.996C419.451 124.996 422.801 129.11 422.801 134.185C422.801 139.261 419.451 143.375 415.318 143.375C411.185 143.375 407.836 139.261 407.836 134.185Z" fill="#D67AA8"/>
<path d="M380.284 149.396C377.225 151.08 367.234 151.642 366.555 151.548C365.875 151.455 367.27 159.041 369.717 159.321C372.164 159.603 377.058 158.947 379.097 156.982C381.135 155.018 380.284 149.396 380.284 149.396Z" fill="#C57E75"/>
<path d="M378.936 131.262C378.936 129.878 379.618 128.756 380.46 128.756C381.303 128.756 381.986 129.878 381.986 131.262C381.986 132.646 381.303 133.768 380.46 133.768C379.618 133.768 378.936 132.646 378.936 131.262Z" fill="#471052"/>
<path d="M361.49 132.431C361.49 131.047 362.077 129.925 362.801 129.925C363.525 129.925 364.112 131.047 364.112 132.431C364.112 133.815 363.525 134.937 362.801 134.937C362.077 134.937 361.49 133.815 361.49 132.431Z" fill="#471052"/>
<path d="M387.472 121.491C386.431 120.918 385.308 120.522 384.158 120.191C383.002 119.881 381.802 119.699 380.586 119.655C379.376 119.595 378.096 119.561 376.925 120.014C375.75 120.419 374.685 121.157 373.9 122.129L373.989 122.279C375.249 122.143 376.288 121.834 377.386 121.688C378.459 121.527 379.5 121.136 380.621 121.045C382.839 120.857 385.165 121.032 387.402 121.65L387.472 121.491Z" fill="#471052"/>
<path d="M357.081 124.73C357.625 124.519 358.197 124.387 358.766 124.322C359.334 124.245 359.902 124.217 360.464 124.211C361.03 124.202 361.594 124.405 362.145 124.27C362.424 124.207 362.709 124.153 362.999 124.032C363.292 123.933 363.59 123.803 363.911 123.579L363.929 123.406C363.383 122.874 362.766 122.646 362.14 122.533C361.507 122.413 360.88 122.668 360.272 122.834C359.661 122.994 359.063 123.207 358.499 123.495C357.947 123.801 357.405 124.122 356.975 124.594L357.081 124.73Z" fill="#471052"/>
<path d="M374.719 304.694C374.727 305.082 374.183 305.643 372.857 305.643H331.011C326.186 305.643 325.06 303.735 326.508 301.322C327.956 298.908 334.069 293.6 349.189 289.9C364.31 286.2 372.261 294.852 374.719 298.747C376.522 301.605 374.719 304.694 374.719 304.694Z" fill="#524787"/>
<path d="M326.153 302.046C326.985 304.813 358.914 303.371 358.914 303.371C358.914 303.371 355.676 298.997 352.098 298.872C348.518 298.747 346.777 299.991 341.978 300.817C337.178 301.642 340.736 298.864 340.736 298.864C340.736 298.864 337.345 298.112 335.965 297.042C335.965 297.042 343.874 294.706 347.192 294.162C350.508 293.62 358.955 293.981 360.04 294.162C360.808 294.29 364.706 292.027 369.414 293.163C372.044 295.084 373.783 297.26 374.721 298.747C376.524 301.604 374.721 304.693 374.721 304.693C374.727 305.081 374.184 305.643 372.858 305.643H331.013C326.683 305.643 325.339 304.104 326.153 302.046Z" fill="#38295C"/>
<path d="M462.72 278.531C462.72 278.531 432.963 283.132 416.833 286.019C401.554 288.753 388.36 289.941 384.621 289.215C380.88 288.492 368.091 283.787 363.989 282.098C359.887 280.409 351.683 279.443 347.461 280.771C343.238 282.098 339.779 283.546 338.09 283.546C336.402 283.546 336.723 286.281 338.975 286.843C341.228 287.406 343.238 287.327 343.238 287.327C343.238 287.327 335.597 291.509 334.229 291.91C332.863 292.312 334.483 294.805 336.332 294.645C336.332 294.645 334.713 295.61 335.275 296.575C335.839 297.54 339.859 297.54 339.859 297.54C339.859 297.54 334.954 299.954 339.056 300.919C343.158 301.883 348.064 297.299 350.075 296.897C352.086 296.494 356.75 296.737 359.003 298.426C361.255 300.114 370.907 307.917 384.097 303.252C384.097 303.252 473.63 306.879 482.557 306.879C491.485 306.879 496.877 298.989 494.014 283.787C491.152 268.585 485.602 257.245 485.602 257.245L454.716 259.416L462.72 278.531Z" fill="#FFA498"/>
<path d="M350.287 284.909C351.075 284.723 351.704 284.615 352.097 284.59C352.097 284.59 351.333 284.722 350.287 284.909Z" fill="#C57E75"/>
<path d="M343.238 287.326C343.238 287.326 341.228 287.406 338.976 286.843C338.342 286.685 337.868 286.352 337.541 285.959C340.046 287.067 343.129 286.36 344.817 285.958C345.883 285.704 348.499 285.227 350.288 284.91C348.496 285.33 345.872 286.152 343.238 287.326Z" fill="#C57E75"/>
<path d="M343.633 290.945C343.826 290.857 343.989 290.789 344.095 290.756C344.095 290.756 343.921 290.826 343.633 290.945Z" fill="#C57E75"/>
<path d="M334.246 293.702C334.275 293.728 335.158 294.507 337.017 293.697C338.566 293.024 342.324 291.481 343.633 290.945C341.986 291.693 337.522 294.213 336.333 294.645C335.511 294.716 334.736 294.263 334.246 293.702Z" fill="#C57E75"/>
<path d="M338.867 296.656C340.234 296.253 343.09 294.523 344.839 293.697C346.588 292.87 348.82 292.775 348.82 292.775C348.82 292.775 348.157 292.835 346.407 293.697C344.659 294.559 339.86 297.54 339.86 297.54C339.86 297.54 337.281 297.539 335.965 297.042C335.979 297.042 337.505 297.056 338.867 296.656Z" fill="#C57E75"/>
<path d="M364.324 298.626C366.856 300.195 374.337 302.246 378.801 301.402C383.265 300.557 384.23 296.817 384.23 296.817L385.478 300.839C385.478 300.839 447.57 302.609 460.198 302.04C472.681 301.479 492.151 301.195 494.694 293.697C493.996 302.401 489.281 306.879 482.558 306.879C473.63 306.879 384.097 303.252 384.097 303.252C370.907 307.917 361.256 300.114 359.003 298.426C357.131 297.021 353.596 296.619 351.299 296.755H351.3C354.725 295.555 361.79 297.058 364.324 298.626Z" fill="#C57E75"/>
<path d="M462.72 278.531C462.72 278.531 474.353 276.95 476.685 276.709L474.916 269.47L460.197 272.446L462.72 278.531Z" fill="#C57E75"/>
<path d="M493.811 258.268C494.249 259.402 493.971 260.675 493.102 261.523C487.696 266.803 480.597 273.994 473.298 275.1C465.335 276.306 452.063 276.789 451.339 275.1C450.615 273.411 447.962 251.936 443.136 241.078C438.31 230.22 435.173 224.67 433.966 218.396C432.76 212.122 443.618 197.403 448.444 196.196C453.27 194.99 464.37 194.266 468.954 198.369C473.539 202.47 476.917 218.155 482.225 229.979C486.509 239.519 491.892 253.301 493.811 258.268Z" fill="#DC466F"/>
<path d="M463.944 195.986C462.466 195.815 460.989 195.693 459.509 195.66C458.032 195.601 456.555 195.606 455.085 195.692C453.616 195.781 452.153 195.929 450.713 196.188C449.989 196.303 449.279 196.47 448.567 196.63C447.905 196.871 447.222 197.047 446.612 197.429C445.963 197.72 445.399 198.178 444.804 198.575C444.262 199.053 443.683 199.487 443.187 200.023C442.127 201.02 441.234 202.19 440.328 203.345C439.444 204.52 438.642 205.761 437.88 207.028C437.095 208.284 436.398 209.591 435.719 210.914C436.716 208.107 438.094 205.438 439.747 202.935C440.588 201.693 441.5 200.487 442.567 199.407C443.067 198.838 443.682 198.373 444.248 197.864C444.88 197.43 445.474 196.94 446.183 196.611C446.847 196.209 447.614 196.006 448.351 195.754C449.09 195.599 449.825 195.423 450.572 195.326C452.063 195.113 453.564 194.972 455.064 194.986C458.058 194.978 461.051 195.269 463.944 195.986Z" fill="#D12050"/>
<path d="M487.787 262.713C487.747 258.857 479.606 223.513 472.414 203.813C475.472 210.544 478.329 221.299 482.225 229.978C486.509 239.518 491.892 253.301 493.812 258.267C494.249 259.401 493.971 260.675 493.102 261.523C491.032 263.545 488.711 265.847 486.228 267.98C486.415 267.799 487.824 266.313 487.787 262.713Z" fill="#D12050"/>
<path d="M99.6566 222.895C99.5097 224.084 99.7582 225.283 100.336 226.333C102.442 230.162 103.509 234.562 103.371 238.931C103.28 241.81 102.688 244.755 103.473 247.527C104.825 252.309 109.871 255.266 111.496 259.962C112.935 264.126 111.597 269.361 114.588 272.594C115.33 273.395 116.482 274.009 117.496 273.603C118.004 273.399 118.386 272.974 118.748 272.563C122.179 268.666 125.852 263.931 124.794 258.849C123.8 254.074 118.879 250.847 117.946 246.06C117.185 242.149 119.184 237.637 116.943 234.342C116.325 233.432 115.439 232.737 114.764 231.869C112.098 228.447 113.086 222.992 110.015 219.929C109.014 218.93 107.761 218.364 106.395 218.072C103.176 217.383 100.06 219.627 99.6566 222.894V222.895Z" fill="#D35E5A"/>
<path d="M119.166 283.562C119.372 281.016 119.46 278.468 119.555 275.914C119.439 273.367 119.303 270.82 119.085 268.274C118.867 265.729 118.581 263.184 118.13 260.654C117.673 258.14 117.069 255.571 116.012 253.207C114.164 248.536 112.671 243.651 111.162 238.81L108.973 231.513C108.074 229.129 107.196 226.74 106.348 224.334C106.72 226.866 107.299 229.35 107.807 231.854L110 239.167C111.518 244.033 112.998 248.888 114.891 253.675C115.914 255.964 116.48 258.386 116.935 260.866C117.376 263.343 117.658 265.857 117.875 268.377C118.087 270.899 118.235 273.43 118.332 275.963L119.166 283.562Z" fill="#FFA8A5"/>
<path d="M105.721 231.939C106.141 232.575 106.682 233.052 107.263 233.473C107.561 233.673 107.912 233.804 108.237 233.968C108.567 234.126 108.855 234.339 109.123 234.58L109.238 234.686L109.342 234.528C109.585 234.155 109.88 233.81 110.112 233.434C110.337 233.054 110.573 232.68 110.772 232.287C111.161 231.496 111.45 230.655 111.596 229.745L111.524 229.709C110.888 230.377 110.393 231.114 109.998 231.902C109.805 232.299 109.65 232.713 109.482 233.121C109.322 233.535 109.226 233.979 109.078 234.396L109.298 234.344C108.987 234.159 108.698 233.947 108.45 233.678C108.198 233.417 107.971 233.121 107.692 232.896C107.119 232.465 106.504 232.09 105.77 231.876L105.721 231.939Z" fill="#FFA8A5"/>
<path d="M106.34 240.647C106.778 241.008 107.229 241.397 107.702 241.723C108.173 242.057 108.653 242.379 109.171 242.638C109.695 242.89 110.251 243.089 110.755 243.374C111.262 243.654 111.724 244.007 112.175 244.374L112.335 244.504L112.496 244.293C113.193 243.378 113.791 242.406 114.355 241.416C114.886 240.405 115.358 239.362 115.697 238.244L115.627 238.205C114.845 239.073 114.196 240.016 113.604 240.99C113.046 241.985 112.521 242.998 112.098 244.068L112.418 243.987C111.889 243.741 111.369 243.482 110.892 243.153C110.413 242.828 109.984 242.421 109.522 242.067C109.055 241.721 108.545 241.442 108.024 241.183C107.497 240.93 106.974 240.685 106.357 240.568L106.34 240.647Z" fill="#FFA8A5"/>
<path d="M109.434 252.139C109.913 252.622 110.448 252.979 111 253.301C111.544 253.636 112.143 253.859 112.779 254.008C113.415 254.163 113.99 254.443 114.502 254.835C115.014 255.223 115.514 255.65 116.024 255.986L116.411 256.239L116.698 255.808C117.121 255.174 117.506 254.519 117.804 253.815C118.104 253.114 118.37 252.392 118.518 251.608L118.43 251.559C117.846 252.105 117.379 252.715 116.947 253.344C116.513 253.972 116.165 254.648 115.856 255.346L116.53 255.168C115.946 254.847 115.325 254.661 114.711 254.446C114.096 254.235 113.536 253.93 113.031 253.51C112.529 253.083 111.978 252.746 111.374 252.525C110.774 252.293 110.154 252.104 109.476 252.048L109.434 252.139Z" fill="#FFA8A5"/>
<path d="M123.218 284.06C125.209 283.733 132.671 281.346 132.151 279.397C129.913 271.033 127.676 261.544 135.423 257.453C139.151 255.485 143.83 254.484 145.953 250.842C148.14 247.09 146.53 242.321 144.568 238.448C142.605 234.574 140.243 230.428 141.084 226.167C141.965 221.707 146.184 218.415 146.858 213.918C147.779 207.778 141.817 202.831 136.09 200.434C134.142 199.618 132 198.921 129.947 199.417C128.481 199.77 127.209 200.711 126.204 201.835C122.181 206.334 122.345 213.122 123.263 219.087C124.181 225.052 125.587 231.351 123.34 236.953C121.744 240.931 118.328 244.673 119.243 248.861C119.609 250.539 120.655 252.002 121.054 253.672C122.129 258.174 118.39 262.23 116.675 266.529C114.464 272.077 115.982 278.856 120.175 283.066C120.972 283.866 122.102 284.243 123.218 284.06Z" fill="#FF7571"/>
<path d="M122.514 284.153C122.975 280.842 123.436 277.543 124.026 274.268C124.166 273.449 124.338 272.634 124.47 271.815C124.594 270.996 124.668 270.169 124.804 269.351C125.051 267.712 125.326 266.078 125.639 264.455C126.271 261.21 127.027 257.979 128.136 254.908C128.692 253.378 129.353 251.881 130.223 250.591C130.656 249.948 131.167 249.377 131.733 248.992C132.479 248.503 133.19 247.872 133.746 247.12C134.894 245.599 135.24 243.667 135.199 241.927C135.16 240.162 134.826 238.476 134.453 236.831C133.686 233.546 132.721 230.374 132.184 227.143C131.639 223.928 131.532 220.635 132.382 217.551C132.642 216.798 132.848 216.032 133.096 215.266C133.348 214.503 133.677 213.762 134.047 213.036C134.79 211.584 135.76 210.232 136.834 208.946C135.518 209.979 134.296 211.173 133.278 212.554C132.766 213.24 132.287 213.963 131.88 214.73C131.458 215.489 131.102 216.297 130.916 217.15C129.987 220.525 130.12 224.058 130.685 227.393C131.244 230.745 132.226 233.967 132.973 237.171C133.337 238.772 133.647 240.38 133.68 241.952C133.713 243.518 133.41 245.048 132.525 246.218C132.087 246.804 131.538 247.302 130.892 247.727C130.077 248.285 129.473 248.995 128.973 249.728C127.979 251.205 127.294 252.789 126.709 254.386C125.554 257.588 124.791 260.872 124.148 264.166C123.83 265.814 123.552 267.468 123.301 269.125C123.188 269.955 123.033 270.778 122.933 271.611C122.848 272.444 122.811 273.283 122.757 274.12C122.576 277.466 122.452 280.809 122.514 284.153Z" fill="#FFA8A5"/>
<path d="M135.735 218.868C135.162 219.068 134.681 219.402 134.236 219.758C133.795 220.12 133.374 220.505 133.063 220.991C132.749 221.473 132.469 221.982 132.066 222.378C131.679 222.789 131.212 223.122 130.763 223.483L131.353 223.52C131.154 223.091 130.909 222.69 130.684 222.278C130.451 221.871 130.218 221.466 129.944 221.088C129.685 220.7 129.389 220.335 129.109 219.964C128.826 219.591 128.507 219.247 128.25 218.852L128.15 218.869C128.129 219.39 128.286 219.874 128.446 220.331C128.621 220.785 128.816 221.225 129.051 221.641C129.271 222.066 129.55 222.452 129.832 222.835C130.123 223.213 130.4 223.595 130.734 223.946L131.103 224.334L131.324 223.982C131.626 223.504 131.918 223.006 132.295 222.588C132.655 222.157 133.146 221.845 133.61 221.514C134.077 221.185 134.445 220.765 134.806 220.338C135.164 219.905 135.498 219.46 135.798 218.947L135.735 218.868Z" fill="#FFA8A5"/>
<path d="M128.498 231.532C128.735 232.102 129.044 232.622 129.389 233.109C129.742 233.59 130.109 234.059 130.53 234.478C130.961 234.888 131.454 235.238 131.916 235.615C132.369 236.001 132.768 236.435 133.13 236.909L133.246 237.06L133.408 236.93C134.011 236.451 134.489 236.014 134.964 235.503C135.414 234.989 135.893 234.501 136.312 233.967C136.735 233.436 137.128 232.884 137.502 232.318C137.88 231.752 138.219 231.162 138.613 230.61L138.556 230.526C137.895 230.839 137.38 231.322 136.869 231.783C136.368 232.257 135.901 232.76 135.47 233.287C135.033 233.812 134.663 234.387 134.258 234.932C133.863 235.465 133.529 236.128 133.154 236.595L133.432 236.616C132.974 236.241 132.561 235.818 132.206 235.343C131.86 234.859 131.549 234.343 131.185 233.88C130.812 233.425 130.387 233.016 129.964 232.607C129.534 232.204 129.076 231.824 128.578 231.471L128.498 231.532Z" fill="#FFA8A5"/>
<path d="M141.807 241.309C141.178 242.046 140.527 242.726 139.861 243.375C139.192 244.026 138.475 244.595 137.777 245.22C137.065 245.825 136.258 246.367 135.344 246.634C134.438 246.919 133.476 246.956 132.548 246.945L132.964 247.237C132.8 246.456 132.558 245.719 132.302 244.974C132.049 244.231 131.728 243.508 131.34 242.819C130.955 242.127 130.499 241.466 129.961 240.869C129.413 240.289 128.78 239.744 128.023 239.473L127.973 239.56C128.545 240.079 128.987 240.677 129.371 241.317C129.761 241.95 130.09 242.621 130.416 243.295L131.347 245.351C131.653 246.04 131.923 246.757 132.191 247.454L132.32 247.791L132.606 247.746C133.593 247.591 134.53 247.257 135.446 246.935C136.351 246.582 137.281 246.272 138.171 245.816C139.071 245.375 139.828 244.694 140.463 243.934C141.097 243.173 141.615 242.307 141.897 241.354L141.807 241.309Z" fill="#FFA8A5"/>
<path d="M123.809 248.791C123.504 249.523 123.4 250.322 123.42 251.113C123.454 251.902 123.578 252.698 123.855 253.443C124.146 254.182 124.573 254.861 125.049 255.477L126.443 257.328L126.542 257.46L126.702 257.346C127.456 256.81 128.313 256.404 129.13 255.978C129.946 255.54 130.792 255.164 131.638 254.805C132.483 254.44 133.328 254.071 134.195 253.745C135.056 253.391 135.942 253.11 136.842 252.772L136.827 252.671C134.908 252.63 132.969 253.037 131.204 253.814C130.319 254.201 129.486 254.697 128.681 255.22C127.878 255.756 127.162 256.401 126.46 257.066L126.72 257.084C126.204 256.54 125.734 255.939 125.434 255.249C125.1 254.575 124.935 253.841 124.706 253.155C124.261 251.769 123.979 250.342 123.908 248.814L123.809 248.791Z" fill="#FFA8A5"/>
<path d="M109.687 305.642H130.991C132.968 305.642 134.649 303.932 134.947 301.619L138.319 275.412C138.689 272.546 136.813 269.963 134.364 269.963H106.315C103.865 269.963 101.99 272.546 102.359 275.412L105.732 301.619C106.029 303.932 107.71 305.642 109.687 305.642Z" fill="#524787"/>
<path d="M106.315 269.965H120.654C118.204 269.965 116.329 272.547 116.698 275.413L120.07 301.621C120.368 303.934 122.05 305.643 124.026 305.643H109.687C107.71 305.643 106.029 303.934 105.732 301.621L102.359 275.413C101.99 272.547 103.865 269.965 106.315 269.965Z" fill="#38295C"/>
<path d="M300.523 298.445H211.421C210.524 298.445 209.797 299.172 209.797 300.07V304.017C209.797 304.915 210.524 305.642 211.421 305.642H300.523V298.445Z" fill="#3A4278"/>
<path d="M323.452 303.409V305.013C323.452 305.361 323.171 305.642 322.824 305.642H300.379C299.681 305.642 299.115 305.076 299.115 304.378V299.701C299.115 298.947 299.772 298.36 300.522 298.445L322.894 302.786C323.212 302.822 323.452 303.09 323.452 303.409Z" fill="#524787"/>
<path d="M144.809 147.005H311.337C314.707 147.005 317.713 149.119 318.855 152.289L355.274 253.429C356.797 258.645 352.981 262.553 346.849 263.214C345.908 263.315 341.435 261.304 334.411 258H185.533C182.164 258 179.157 255.887 178.015 252.717L145.116 161.353C139.554 158.45 136.383 156.791 136.383 156.791C136.383 156.791 134.323 147.005 144.809 147.005Z" fill="#636A98"/>
<path d="M306.124 152.219H139.595C137.231 152.219 135.581 154.565 136.382 156.79L172.802 257.93C173.944 261.1 176.952 263.213 180.321 263.213H346.848C349.215 263.213 350.863 260.867 350.062 258.641L313.643 157.502C312.501 154.332 309.493 152.219 306.124 152.219Z" fill="#838BC0"/>
<path d="M268.53 263.214L261.138 235.797L233.121 263.214H268.53Z" fill="#261B41"/>
<path d="M306.246 246.384L304.105 240.436H306.797L308.938 246.384H306.246Z" fill="#261B41"/>
<path d="M300.578 246.384L298.438 240.436H301.129L303.27 246.384H300.578Z" fill="#261B41"/>
<path d="M294.91 246.384L292.77 240.436H295.461L297.603 246.384H294.91Z" fill="#261B41"/>
<path d="M289.242 246.384L287.102 240.436H289.793L291.934 246.384H289.242Z" fill="#261B41"/>
<path d="M208.729 246.384L206.588 240.436H209.279L211.421 246.384H208.729Z" fill="#261B41"/>
<path d="M203.061 246.384L200.92 240.436H203.612L205.752 246.384H203.061Z" fill="#261B41"/>
<path d="M197.392 246.384L195.25 240.436H197.942L200.083 246.384H197.392Z" fill="#261B41"/>
<path d="M191.723 246.384L189.582 240.436H192.274L194.415 246.384H191.723Z" fill="#261B41"/>
<path d="M212.296 295.868C213.939 291.143 233.867 226.84 233.867 226.84H259.447L261.137 235.796C261.137 235.796 243.986 291.143 242.343 295.868C242.217 296.228 242.098 296.589 241.986 296.951H241.988C240.485 301.571 244.451 301.551 248.916 301.551H294.03V305.642H248.916H218.871C209.831 305.642 210.652 300.592 212.296 295.868Z" fill="#636A98"/>
<path d="M259.447 226.84C259.447 226.84 239.519 291.143 237.876 295.868C236.232 300.592 235.411 305.642 244.45 305.642H214.403C205.364 305.642 206.186 300.592 207.83 295.868C209.473 291.143 229.4 226.84 229.4 226.84H259.447Z" fill="#838BC0"/>
<path d="M253.183 226.84C251.201 226.749 249.219 226.704 247.237 226.639C245.256 226.571 243.274 226.555 241.292 226.513C239.31 226.481 237.328 226.423 235.346 226.422L229.401 226.385L229.069 226.384L228.966 226.705C228.138 229.295 227.321 231.889 226.542 234.494L224.172 242.298C222.646 247.519 221.118 252.738 219.725 257.999C221.555 252.874 223.252 247.707 224.953 242.541L227.421 234.766C228.255 232.178 229.051 229.579 229.835 226.975L229.401 227.295L235.346 227.258C237.328 227.258 239.31 227.2 241.292 227.168C243.274 227.125 245.256 227.11 247.237 227.041C249.219 226.977 251.201 226.932 253.183 226.84Z" fill="#8475D5"/>
<path d="M78.9162 321.429H519.982C524.342 321.429 527.875 317.895 527.875 313.535C527.875 309.176 524.342 305.642 519.982 305.642H78.9162C74.5568 305.642 71.0234 309.176 71.0234 313.535C71.0234 317.895 74.5568 321.429 78.9162 321.429Z" fill="#A14F58"/>
<path d="M78.9162 321.429H519.982C524.342 321.429 527.875 317.895 527.875 313.535H71.0234C71.0234 317.895 74.5568 321.429 78.9162 321.429Z" fill="#713349"/>
<path d="M170.879 66.79C170.879 103.456 141.156 133.179 104.49 133.179C67.8238 133.179 38.0996 103.456 38.0996 66.79C38.0996 30.1238 67.8238 0.399689 104.49 0.399689C141.156 0.399689 170.879 30.1238 170.879 66.79Z" fill="#AEBAEA"/>
</svg>
