<svg width="20" height="20" viewBox="0 0 20 20" fill="none" xmlns="http://www.w3.org/2000/svg">
<circle cx="9.99975" cy="9.70874" r="9.70874" fill="#151875"/>
<path d="M14.2457 7.40725C14.2404 7.01508 14.167 6.62681 14.0287 6.25981C13.9088 5.95024 13.7256 5.6691 13.4908 5.43435C13.2561 5.1996 12.9749 5.01639 12.6653 4.89644C12.3031 4.76045 11.9203 4.68691 11.5334 4.67897C11.0353 4.6567 10.8774 4.65049 9.61292 4.65049C8.34845 4.65049 8.18638 4.65049 7.69188 4.67897C7.30517 4.68697 6.92261 4.76051 6.56049 4.89644C6.25088 5.01631 5.96969 5.19948 5.73493 5.43425C5.50017 5.66901 5.31699 5.9502 5.19713 6.25981C5.06086 6.62182 4.98748 7.00446 4.98017 7.3912C4.9579 7.88984 4.95117 8.04777 4.95117 9.31224C4.95117 10.5767 4.95117 10.7383 4.98017 11.2333C4.98794 11.6206 5.06095 12.0027 5.19713 12.3657C5.31719 12.6752 5.5005 12.9563 5.73535 13.191C5.97019 13.4256 6.2514 13.6087 6.56101 13.7285C6.92214 13.87 7.30476 13.9488 7.6924 13.9616C8.19104 13.9838 8.34897 13.9906 9.61344 13.9906C10.8779 13.9906 11.04 13.9906 11.5345 13.9616C11.9213 13.9539 12.3041 13.8806 12.6664 13.7446C12.9759 13.6245 13.2569 13.4413 13.4917 13.2065C13.7264 12.9718 13.9097 12.6907 14.0297 12.3812C14.1659 12.0188 14.2389 11.6366 14.2467 11.2488C14.269 10.7507 14.2757 10.5928 14.2757 9.32777C14.2747 8.06331 14.2747 7.90279 14.2457 7.40725ZM9.60981 11.7034C8.28735 11.7034 7.21603 10.6321 7.21603 9.30965C7.21603 7.98719 8.28735 6.91586 9.60981 6.91586C10.2447 6.91586 10.8536 7.16806 11.3025 7.61699C11.7514 8.06591 12.0036 8.67478 12.0036 9.30965C12.0036 9.94452 11.7514 10.5534 11.3025 11.0023C10.8536 11.4512 10.2447 11.7034 9.60981 11.7034ZM12.0989 7.38551C11.7897 7.38551 11.5407 7.13593 11.5407 6.82732C11.5407 6.75405 11.5551 6.6815 11.5832 6.61381C11.6112 6.54612 11.6523 6.48461 11.7041 6.4328C11.7559 6.38099 11.8174 6.3399 11.8851 6.31186C11.9528 6.28382 12.0253 6.26939 12.0986 6.26939C12.1719 6.26939 12.2444 6.28382 12.3121 6.31186C12.3798 6.3399 12.4413 6.38099 12.4931 6.4328C12.5449 6.48461 12.586 6.54612 12.6141 6.61381C12.6421 6.6815 12.6565 6.75405 12.6565 6.82732C12.6565 7.13593 12.407 7.38551 12.0989 7.38551Z" fill="white"/>
<path d="M9.60964 10.8643C10.4684 10.8643 11.1646 10.1682 11.1646 9.30938C11.1646 8.45061 10.4684 7.75443 9.60964 7.75443C8.75086 7.75443 8.05469 8.45061 8.05469 9.30938C8.05469 10.1682 8.75086 10.8643 9.60964 10.8643Z" fill="white"/>
</svg>
