<svg width="20" height="20" viewBox="0 0 20 20" fill="none" xmlns="http://www.w3.org/2000/svg">
<circle cx="10.2908" cy="9.70874" r="9.70874" fill="#151875"/>
<path d="M15.931 5.66304C15.4986 5.85462 15.0342 5.98407 14.5459 6.04259C15.0497 5.74112 15.4266 5.26665 15.6063 4.7077C15.133 4.98886 14.6149 5.18677 14.0747 5.29281C13.7114 4.90491 13.2302 4.6478 12.7058 4.56141C12.1814 4.47501 11.6431 4.56416 11.1746 4.81502C10.7061 5.06587 10.3335 5.46439 10.1146 5.94871C9.89579 6.43303 9.84297 6.97605 9.96438 7.49346C9.00525 7.4453 8.06697 7.19601 7.21042 6.76176C6.35388 6.32751 5.59821 5.71801 4.99247 4.97281C4.78535 5.33009 4.66626 5.74433 4.66626 6.1855C4.66602 6.58265 4.76383 6.97371 4.95098 7.324C5.13814 7.67429 5.40886 7.97296 5.73914 8.19352C5.35611 8.18134 4.98153 8.07784 4.64658 7.89165V7.92271C4.64654 8.47973 4.83922 9.01961 5.19192 9.45074C5.54462 9.88187 6.03561 10.1777 6.58159 10.288C6.22627 10.3842 5.85374 10.3984 5.49215 10.3294C5.64619 10.8087 5.94625 11.2278 6.35033 11.5281C6.7544 11.8284 7.24226 11.9948 7.74561 12.004C6.89115 12.6748 5.83591 13.0386 4.74962 13.037C4.5572 13.0371 4.36494 13.0258 4.17383 13.0034C5.27647 13.7123 6.56002 14.0886 7.87092 14.0871C12.3085 14.0871 14.7343 10.4118 14.7343 7.2242C14.7343 7.12064 14.7318 7.01605 14.7271 6.91249C15.199 6.57125 15.6063 6.14868 15.9299 5.66459L15.931 5.66304Z" fill="white"/>
</svg>
